<svg width="516" height="61" viewBox="0 0 516 61" fill="none" xmlns="http://www.w3.org/2000/svg">
<g filter="url(#filter0_d_133_246)">
<line x1="9.50052" y1="6.49902" x2="432.501" y2="6.49899" stroke="#CA3E47" stroke-width="3" stroke-linecap="round"/>
</g>
<g filter="url(#filter1_d_133_246)">
<path d="M497.962 44.5879L432.501 6.49988" stroke="#CA3E47" stroke-width="3" stroke-linecap="round"/>
</g>
<path d="M500.615 47.6793C496.76 51.5918 493.335 55.2168 493.063 55.6571C492.82 56.2257 493.36 57.2491 494.625 58.4708C496.445 60.227 496.703 60.2758 497.808 59.1322L501.673 55.1294L504.384 52.3223L507.095 49.5152L510.96 45.5125C512.165 44.2649 512.136 44.1366 510.008 42.3836L507.761 40.5161L500.615 47.6793Z" fill="#414141"/>
<path d="M509.699 42.7555L509.699 42.7555L509.701 42.7569C510.236 43.1979 510.62 43.521 510.885 43.7816C511.16 44.0517 511.247 44.1983 511.271 44.2769L511.271 44.2778C511.28 44.3078 511.293 44.3514 511.208 44.4885C511.107 44.6516 510.922 44.8562 510.612 45.1765L506.747 49.1792L504.036 51.9863L501.325 54.7934L497.46 58.7961C497.182 59.084 496.996 59.2539 496.846 59.3471C496.718 59.4261 496.65 59.4293 496.582 59.4153C496.48 59.3942 496.315 59.317 496.034 59.0957C495.758 58.8791 495.417 58.5629 494.961 58.1229C494.348 57.5309 493.934 57.0081 493.703 56.5868C493.487 56.1937 493.477 55.9745 493.498 55.8792C493.507 55.8679 493.517 55.8543 493.53 55.8384C493.566 55.7931 493.614 55.7346 493.676 55.6626C493.798 55.5188 493.966 55.3297 494.174 55.0999C494.591 54.6406 495.162 54.0267 495.847 53.3027C497.216 51.8554 499.033 49.9738 500.958 48.0198C500.959 48.0195 500.959 48.0191 500.959 48.0187L507.792 41.1705L509.699 42.7555Z" stroke="#313131" stroke-opacity="0.8"/>
<path d="M491.735 49.0582C491.83 48.3875 493.593 46.2758 496.786 42.9698C499.978 39.6638 500.781 38.8332 501.595 38.7053C502.409 38.5773 503.909 40.0261 503.909 40.0261L505.267 41.3369L499.787 47.0113L494.307 52.6858L492.95 51.375C492.199 50.6506 491.651 49.6451 491.735 49.0582Z" fill="#414141"/>
<path d="M5.49219 6.80274C5.54305 3.66891 5.49219 0.823716 5.39048 0.535073C5.18706 0.205196 4.16994 -0.000976562 2.54255 -0.000976562C0.203174 -0.000976562 -0.000249386 0.0814924 -0.000249386 0.988654L-0.000249386 4.16372V6.39039V8.61706L-0.000249386 11.7921C-0.000249386 12.7818 0.101463 12.823 2.64426 12.6993L5.33963 12.5756L5.49219 6.80274Z" fill="#414141"/>
<path d="M2.62134 12.1998L2.61997 12.1999C1.98151 12.2309 1.51218 12.2508 1.16095 12.2489C0.797417 12.247 0.618927 12.2207 0.531671 12.1906C0.528241 12.1894 0.52517 12.1883 0.522432 12.1872C0.508808 12.1342 0.499751 12.0294 0.499751 11.7921L0.499751 8.61706V6.39039V4.16372L0.499751 0.988654C0.499751 0.760081 0.51644 0.675713 0.530534 0.641432C0.530549 0.641395 0.530564 0.641357 0.53058 0.64132C0.536486 0.637372 0.550024 0.629449 0.575715 0.619419C0.671071 0.582192 0.850342 0.546456 1.18972 0.525096C1.52011 0.504302 1.95688 0.499023 2.54255 0.499023C3.33958 0.499023 3.96604 0.549845 4.40621 0.634373C4.62716 0.676803 4.7845 0.724646 4.88719 0.769821C4.90241 0.776517 4.91546 0.782725 4.92657 0.788352C4.92722 0.794539 4.92789 0.801054 4.92857 0.807905C4.93849 0.908255 4.94814 1.04651 4.95709 1.22109C4.97495 1.56923 4.98913 2.04346 4.99862 2.61033C5.01758 3.74245 5.01762 5.23063 4.9923 6.79208L4.85209 12.0974L2.62134 12.1998Z" stroke="#313131" stroke-opacity="0.8"/>
<path d="M9.35851 2.21859C9.6525 2.53163 9.7995 4.09685 9.7995 6.71859C9.7995 9.34033 9.79948 9.99901 9.432 10.374C9.06451 10.749 7.52104 10.749 7.52104 10.749H6.12457V6.24902L6.12457 1.74902H7.52104C8.29278 1.74902 9.10126 1.94468 9.35851 2.21859Z" fill="#414141"/>
<defs>
<filter id="filter0_d_133_246" x="3.00052" y="-0.000976562" width="436" height="13" filterUnits="userSpaceOnUse" color-interpolation-filters="sRGB">
<feFlood flood-opacity="0" result="BackgroundImageFix"/>
<feColorMatrix in="SourceAlpha" type="matrix" values="0 0 0 0 0 0 0 0 0 0 0 0 0 0 0 0 0 0 127 0" result="hardAlpha"/>
<feOffset/>
<feGaussianBlur stdDeviation="2.5"/>
<feColorMatrix type="matrix" values="0 0 0 0 0.792157 0 0 0 0 0.243137 0 0 0 0 0.278431 0 0 0 1 0"/>
<feBlend mode="normal" in2="BackgroundImageFix" result="effect1_dropShadow_133_246"/>
<feBlend mode="normal" in="SourceGraphic" in2="effect1_dropShadow_133_246" result="shape"/>
</filter>
<filter id="filter1_d_133_246" x="426.001" y="-0.000366211" width="78.4617" height="51.0885" filterUnits="userSpaceOnUse" color-interpolation-filters="sRGB">
<feFlood flood-opacity="0" result="BackgroundImageFix"/>
<feColorMatrix in="SourceAlpha" type="matrix" values="0 0 0 0 0 0 0 0 0 0 0 0 0 0 0 0 0 0 127 0" result="hardAlpha"/>
<feOffset/>
<feGaussianBlur stdDeviation="2.5"/>
<feColorMatrix type="matrix" values="0 0 0 0 0.792157 0 0 0 0 0.243137 0 0 0 0 0.278431 0 0 0 1 0"/>
<feBlend mode="normal" in2="BackgroundImageFix" result="effect1_dropShadow_133_246"/>
<feBlend mode="normal" in="SourceGraphic" in2="effect1_dropShadow_133_246" result="shape"/>
</filter>
</defs>
</svg>
