<?xml version="1.0" encoding="iso-8859-1"?>
<!-- Generator: Adobe Illustrator 24.1.0, SVG Export Plug-In . SVG Version: 6.00 Build 0)  -->
<svg version="1.1" xmlns="http://www.w3.org/2000/svg" xmlns:xlink="http://www.w3.org/1999/xlink" x="0px" y="0px"
	 viewBox="0 0 512 512" style="enable-background:new 0 0 512 512;" xml:space="preserve">
<g id="_x32_4_x2C__Github_x2C__logo_x2C__brands_and_logotypes_x2C__brands_x2C__logos_x2C__logotype_x2C__social_network_x2C__social_media">
	<g>
		<g>
			<path style="fill:#1C1C1C;" d="M503.709,261.374c0-136.79-110.919-247.692-247.718-247.692
				c-136.782,0-247.699,110.902-247.699,247.692c0,111.617,73.836,205.984,175.314,236.944l0.358-0.496c0,0,8.178,0,11.251-7.152
				v-49.091c0,0-33.411,5.112-48.759-0.675c-15.33-5.797-26.223-14.316-37.815-42.603c-11.608-28.298-30.013-23.184-32.044-33.418
				c-2.049-10.218,19.753-5.788,27.247-1.358c7.529,4.439,13.316,11.251,19.445,18.746c6.147,7.503,14.648,28.639,43.977,28.639
				c0,0,13.624,2.381,20.111-0.684c6.472-3.073,9.202-4.771,10.893-5.113c0,0-3.398-20.452,12.958-34.766
				c0,0-107.043-1.699-111.123-111.464c0,0-0.682-46.36,26.599-74.307c0,0-10.225-33.64,0.684-64.541
				c0,0,33.172-4.089,67.707,25.906c0,0,23.646-9.994,59.993-9.994c36.364,0,65.01,10.456,65.01,10.456s21.802-21.817,65.882-26.821
				c0,0,10.926,24.994,1.827,63.629c0,0,25.898,24.541,25.898,69.987S398.27,361.818,301.898,369.55
				c0,0,16.356,21.819,16.356,40.897c0,19.095-0.888,73.632-0.888,73.632s-0.068,10.491,11.746,14.026
				C430.229,466.905,503.709,372.735,503.709,261.374z"/>
			<path d="M181.478,505.292C78.734,473.947,1,378.027,1,261.373C1,120.776,115.388,6.391,255.99,6.391
				C396.603,6.391,511,120.776,511,261.373c0,116.082-77.058,212.017-179.737,243.699c-1.38,0.426-2.856,0.432-4.241,0.018
				c-13.487-4.035-16.983-15.541-16.948-21.06c0.01-0.617,0.889-54.767,0.889-73.584c0-16.375-14.755-36.33-14.904-36.529
				c-3.426-4.588-0.455-11.179,5.255-11.637c69.738-5.596,105.098-42.297,105.098-109.086c0-41.49-23.405-64.485-23.64-64.712
				c-1.857-1.786-2.653-4.438-2.064-6.946c6.077-25.799,2.622-45.175,0.242-53.926c-36.83,5.744-55.522,23.773-55.716,23.965
				c-2.007,1.977-4.995,2.64-7.638,1.675c-0.269-0.098-27.978-10.015-62.509-10.015c-34.47,0-56.931,9.326-57.154,9.42
				c-2.561,1.082-5.52,0.615-7.619-1.211c-24.574-21.344-47.92-24.173-57.519-24.325c-7.488,26.879,0.799,55.044,0.889,55.341
				c0.765,2.542,0.091,5.307-1.762,7.205c-24.325,24.919-24.532,67.118-24.526,69.05c1.614,42.647,19.499,73.125,53.158,90.586
				c25.452,13.201,50.539,13.748,50.79,13.752c6.671,0.104,9.692,8.398,4.687,12.778c-13.147,11.506-10.593,27.918-10.566,28.084
				c0.634,3.815-1.822,7.45-5.573,8.304c-0.595,0.217-6.32,3.135-9.387,4.592c-7.661,3.62-20.132,1.988-23.861,1.386
				c-32.778-0.3-43.221-24.245-48.995-31.307c-6.054-7.403-11.186-13.359-17.508-17.086c-2.861-1.692-7.787-3.028-11.834-3.595
				c0.019,0.01,0.038,0.018,0.057,0.028c7.531,3.793,18.913,9.524,27.023,29.294c10.589,25.836,19.638,33.253,33.648,38.55
				c11.092,4.18,36.301,1.625,45.079,0.288c4.394-0.688,8.393,2.739,8.393,7.208c-0.2,50.748,0.485,49.469-0.592,51.969
				c-3.247,7.558-10.116,10.529-15.119,11.328C185.137,505.681,183.233,505.829,181.478,505.292z M255.99,20.974
				c-132.561,0-240.406,107.843-240.406,240.399c0,105.605,67.232,197.362,167.586,229.172c0.261-0.018,0.521-0.024,0.793-0.016
				c0.207-0.01,2.591-0.151,3.959-1.777v-38.905c-11.564,1.219-31.916,2.45-44.039-2.121c-17.142-6.482-29.504-16.193-41.991-46.661
				c-6.04-14.729-13.829-18.65-20.087-21.802c-4.845-2.44-10.875-5.476-12.362-12.963c-0.971-4.845,0.728-9.365,4.547-12.077
				c9.078-6.447,27.688-0.45,33.562,3.021c8.376,4.938,14.638,12.164,21.38,20.409c6.654,8.13,13.166,25.963,38.332,25.963
				c0.42,0,0.84,0.037,1.255,0.108c5.496,0.949,13.135,1.138,15.743-0.094c2.692-1.277,4.533-2.221,6.427-3.175
				c0.006-5.796,1.035-15.089,6.34-24.238c-10.941-1.723-26.933-5.537-43.193-13.971c-26.602-13.798-58.782-42.885-61.019-103.096
				c-0.003-0.054-0.004-0.108-0.004-0.164c-0.03-1.948-0.37-46.558,25.822-76.428c-2.471-10.367-7.523-38.339,1.874-64.955
				c0.921-2.609,3.239-4.472,5.984-4.811c1.443-0.174,34.692-3.884,70.042,24.835c36.636-12.55,83.377-11.466,121.898,0.54
				c8.109-6.588,30.231-21.693,66.722-25.835c3.172-0.372,6.221,1.393,7.503,4.324c0.471,1.077,11.079,26.019,3.095,64.386
				c7.248,8.33,25.241,32.96,25.241,72.151c0,70.735-36.788,112.826-106.605,122.342c5.064,8.886,11.156,22.215,11.156,34.91
				c0,18.416-0.833,70.255-0.887,73.585c0.063,1.152,0.614,4.418,4.66,6.365c100.057-31.967,167.098-123.691,167.098-229.024
				C496.416,128.817,388.561,20.974,255.99,20.974z"/>
		</g>
	</g>
</g>
<g id="Layer_1">
</g>
</svg>
