<svg width="14" height="130" viewBox="0 0 14 130" fill="none" xmlns="http://www.w3.org/2000/svg">
<g id="cable-led">
<g id="Line 4" filter="url(#filter0_d_112_108)">
<line x1="7.00601" y1="123.495" x2="7.47399" y2="6.4939" stroke="#CA3E47" stroke-width="3" stroke-linecap="round"/>
</g>
<g id="plug-svg">
<g id="Vector">
<path d="M7.80371 4.48371C4.66988 4.52523 1.82469 4.48371 1.53605 4.40068C1.20617 4.23462 1 3.4043 1 2.07579C1 0.166063 1.08247 0 1.98963 0H5.1647H7.39137L9.61804 0H12.7931C13.7827 0 13.824 0.0830317 13.7003 2.15882L13.5766 4.35917L7.80371 4.48371Z" fill="#414141"/>
<path d="M13.201 2.13076L13.2011 2.12908C13.2323 1.60675 13.2517 1.22925 13.2499 0.949008C13.2483 0.701078 13.229 0.578497 13.2125 0.521247C13.1465 0.507019 13.0296 0.5 12.7931 0.5H9.61804L7.39137 0.5H5.1647H1.98963C1.76021 0.5 1.66047 0.513329 1.61138 0.529804C1.61003 0.530257 1.60918 0.530318 1.60867 0.530177C1.60829 0.531571 1.60743 0.533857 1.6057 0.537461C1.58051 0.590139 1.54654 0.712384 1.52558 0.984219C1.50534 1.24675 1.5 1.59736 1.5 2.07579C1.5 2.7194 1.55041 3.21693 1.63104 3.55966C1.67145 3.73148 1.71546 3.84679 1.75328 3.91699C1.75538 3.92087 1.75739 3.92451 1.75933 3.92792C1.77145 3.92903 1.78495 3.9302 1.79991 3.93141C1.90228 3.93967 2.04214 3.94762 2.21737 3.95496C2.567 3.9696 3.04241 3.9812 3.60977 3.98895C4.74317 4.00444 6.23256 4.00447 7.79501 3.98378L13.1033 3.86926L13.201 2.13076Z" stroke="#313131" stroke-opacity="0.8"/>
</g>
<g id="Vector_2">
<path d="M3.21957 7.64C3.53261 7.88 5.09783 8 7.71956 8C10.3413 8 11 7.99998 11.375 7.69999C11.75 7.4 11.75 6.14 11.75 6.14L11.75 5H7.25L2.75 5V6.14C2.75 6.77 2.94565 7.43 3.21957 7.64Z" fill="#414141"/>
</g>
</g>
</g>
<defs>
<filter id="filter0_d_112_108" x="0.506012" y="-0.00610352" width="13.468" height="130.002" filterUnits="userSpaceOnUse" color-interpolation-filters="sRGB">
<feFlood flood-opacity="0" result="BackgroundImageFix"/>
<feColorMatrix in="SourceAlpha" type="matrix" values="0 0 0 0 0 0 0 0 0 0 0 0 0 0 0 0 0 0 127 0" result="hardAlpha"/>
<feOffset/>
<feGaussianBlur stdDeviation="2.5"/>
<feColorMatrix type="matrix" values="0 0 0 0 0.792157 0 0 0 0 0.243137 0 0 0 0 0.278431 0 0 0 1 0"/>
<feBlend mode="normal" in2="BackgroundImageFix" result="effect1_dropShadow_112_108"/>
<feBlend mode="normal" in="SourceGraphic" in2="effect1_dropShadow_112_108" result="shape"/>
</filter>
</defs>
</svg>
