<svg width="608" height="76" viewBox="0 0 608 76" fill="none" xmlns="http://www.w3.org/2000/svg">
<g filter="url(#filter0_d_118_38)">
<line x1="599" y1="7" x2="599" y2="67.9574" stroke="#CA3E47" stroke-width="4" stroke-linecap="round"/>
</g>
<path d="M598.928 71.4845C603.107 71.4427 606.9 71.4845 607.285 71.5682C607.725 71.7354 608 72.5716 608 73.9095C608 75.8328 607.89 76.0001 606.68 76.0001H602.447H599.478H596.509H592.276C590.956 76.0001 590.901 75.9164 591.066 73.8259L591.231 71.61L598.928 71.4845Z" fill="#414141"/>
<path d="M591.565 73.863L591.565 73.863L591.565 73.8652C591.523 74.3924 591.498 74.7672 591.5 75.0433C591.502 75.3125 591.533 75.4145 591.548 75.4464C591.557 75.4506 591.577 75.4579 591.612 75.4655C591.739 75.4928 591.934 75.5001 592.276 75.5001H596.509H599.478H602.447H606.68C606.986 75.5001 607.161 75.4878 607.274 75.4592C607.353 75.4391 607.364 75.4214 607.37 75.4109C607.37 75.4101 607.371 75.4093 607.371 75.4086C607.397 75.3682 607.439 75.2624 607.467 74.9968C607.493 74.7391 607.5 74.3916 607.5 73.9095C607.5 73.2686 607.433 72.78 607.33 72.4485C607.248 72.1843 607.164 72.0845 607.127 72.0508C607.126 72.0507 607.126 72.0507 607.125 72.0506C607.084 72.0465 607.028 72.0422 606.957 72.0379C606.815 72.0293 606.624 72.0211 606.389 72.0137C605.919 71.9988 605.282 71.9871 604.524 71.9793C603.01 71.9637 601.021 71.9636 598.935 71.9845L591.696 72.1025L591.565 73.863Z" stroke="#313131" stroke-opacity="0.8"/>
<path d="M604.374 67.3893C603.957 67.0872 601.87 66.9362 598.374 66.9362C594.878 66.9362 594 66.9362 593.5 67.3138C593 67.6915 593 69.2776 593 69.2776V70.7128H599H605V69.2776C605 68.4846 604.739 67.6537 604.374 67.3893Z" fill="#414141"/>
<g filter="url(#filter1_d_118_38)">
<line x1="598.5" y1="6.5" x2="8.5" y2="6.5" stroke="#CA3E47" stroke-width="3" stroke-linecap="round"/>
</g>
<path d="M4.48371 5.94629C4.52523 9.08012 4.48371 11.9253 4.40068 12.214C4.23462 12.5438 3.4043 12.75 2.07579 12.75C0.166063 12.75 0 12.6675 0 11.7604V8.5853L0 6.35863V4.13196L0 0.956897C0 -0.0327336 0.0830317 -0.0739682 2.15882 0.0497356L4.35917 0.17344L4.48371 5.94629Z" fill="#414141"/>
<path d="M2.13076 0.54895L2.12908 0.54885C1.60675 0.517723 1.22925 0.498307 0.949008 0.500115C0.701078 0.501714 0.578497 0.520966 0.521247 0.537521C0.507019 0.603524 0.5 0.720417 0.5 0.956897L0.5 4.13196V6.35863L0.5 8.5853V11.7604C0.5 11.9898 0.513329 12.0895 0.529804 12.1386C0.530257 12.14 0.530318 12.1408 0.530177 12.1413C0.531571 12.1417 0.533857 12.1426 0.537461 12.1443C0.590139 12.1695 0.712384 12.2035 0.984219 12.2244C1.24675 12.2447 1.59736 12.25 2.07579 12.25C2.7194 12.25 3.21693 12.1996 3.55966 12.119C3.73148 12.0785 3.84679 12.0345 3.91699 11.9967C3.92087 11.9946 3.92451 11.9926 3.92792 11.9907C3.92903 11.9785 3.9302 11.9651 3.93141 11.9501C3.93967 11.8477 3.94762 11.7079 3.95496 11.5326C3.9696 11.183 3.9812 10.7076 3.98895 10.1402C4.00444 9.00683 4.00447 7.51744 3.98378 5.95499L3.86926 0.646686L2.13076 0.54895Z" stroke="#313131" stroke-opacity="0.8"/>
<path d="M7.64 10.5304C7.88 10.2174 8 8.65217 8 6.03044C8 3.4087 7.99998 2.75001 7.69999 2.375C7.4 1.99999 6.14 2 6.14 2H5L5 6.5L5 11H6.14C6.77 11 7.43 10.8043 7.64 10.5304Z" fill="#414141"/>
<defs>
<filter id="filter0_d_118_38" x="592" y="0" width="14" height="74.9574" filterUnits="userSpaceOnUse" color-interpolation-filters="sRGB">
<feFlood flood-opacity="0" result="BackgroundImageFix"/>
<feColorMatrix in="SourceAlpha" type="matrix" values="0 0 0 0 0 0 0 0 0 0 0 0 0 0 0 0 0 0 127 0" result="hardAlpha"/>
<feOffset/>
<feGaussianBlur stdDeviation="2.5"/>
<feColorMatrix type="matrix" values="0 0 0 0 0.792157 0 0 0 0 0.243137 0 0 0 0 0.278431 0 0 0 1 0"/>
<feBlend mode="normal" in2="BackgroundImageFix" result="effect1_dropShadow_118_38"/>
<feBlend mode="normal" in="SourceGraphic" in2="effect1_dropShadow_118_38" result="shape"/>
</filter>
<filter id="filter1_d_118_38" x="2" y="0" width="603" height="13" filterUnits="userSpaceOnUse" color-interpolation-filters="sRGB">
<feFlood flood-opacity="0" result="BackgroundImageFix"/>
<feColorMatrix in="SourceAlpha" type="matrix" values="0 0 0 0 0 0 0 0 0 0 0 0 0 0 0 0 0 0 127 0" result="hardAlpha"/>
<feOffset/>
<feGaussianBlur stdDeviation="2.5"/>
<feColorMatrix type="matrix" values="0 0 0 0 0.792157 0 0 0 0 0.243137 0 0 0 0 0.278431 0 0 0 1 0"/>
<feBlend mode="normal" in2="BackgroundImageFix" result="effect1_dropShadow_118_38"/>
<feBlend mode="normal" in="SourceGraphic" in2="effect1_dropShadow_118_38" result="shape"/>
</filter>
</defs>
</svg>
