<svg width="28" height="124" viewBox="0 0 28 124" fill="none" xmlns="http://www.w3.org/2000/svg">
<g id="socials">
<path id="instagram-svg" d="M7.77778 49C3.48911 49 0 52.4891 0 56.7778V69.2222C0 73.5109 3.48911 77 7.77778 77H20.2222C24.5109 77 28 73.5109 28 69.2222V56.7778C28 52.4891 24.5109 49 20.2222 49H7.77778ZM7.77778 52.1111H20.2222C22.7951 52.1111 24.8889 54.2049 24.8889 56.7778V69.2222C24.8889 71.7951 22.7951 73.8889 20.2222 73.8889H7.77778C5.20489 73.8889 3.11111 71.7951 3.11111 69.2222V56.7778C3.11111 54.2049 5.20489 52.1111 7.77778 52.1111ZM21.7778 53.6667C21.3652 53.6667 20.9696 53.8306 20.6778 54.1223C20.3861 54.414 20.2222 54.8097 20.2222 55.2222C20.2222 55.6348 20.3861 56.0304 20.6778 56.3222C20.9696 56.6139 21.3652 56.7778 21.7778 56.7778C22.1903 56.7778 22.586 56.6139 22.8777 56.3222C23.1694 56.0304 23.3333 55.6348 23.3333 55.2222C23.3333 54.8097 23.1694 54.414 22.8777 54.1223C22.586 53.8306 22.1903 53.6667 21.7778 53.6667ZM14 55.2222C9.71133 55.2222 6.22222 58.7113 6.22222 63C6.22222 67.2887 9.71133 70.7778 14 70.7778C18.2887 70.7778 21.7778 67.2887 21.7778 63C21.7778 58.7113 18.2887 55.2222 14 55.2222ZM14 58.3333C16.5729 58.3333 18.6667 60.4271 18.6667 63C18.6667 65.5729 16.5729 67.6667 14 67.6667C11.4271 67.6667 9.33333 65.5729 9.33333 63C9.33333 60.4271 11.4271 58.3333 14 58.3333Z" fill="#7E7E7E"/>
<path id="linkedin-svg" d="M6.08696 124H0V104.909H6.08696V124ZM3.0447 102.364C1.36104 102.364 0 100.937 0 99.1805C0 97.4242 1.36348 96 3.0447 96C4.72226 96 6.08696 97.4267 6.08696 99.1805C6.08696 100.937 4.72226 102.364 3.0447 102.364ZM28 124H22.148V114.709C22.148 112.493 22.1078 109.644 19.1057 109.644C16.0586 109.644 15.5899 112.057 15.5899 114.549V124H9.73913V104.895H15.3562V107.505H15.4353C16.2169 106.004 18.127 104.42 20.9757 104.42C26.9043 104.42 28 108.377 28 113.522V124Z" fill="#7E7E7E"/>
<path id="github-svg" d="M12.4285 0.0999559C5.97538 0.822021 0.784864 6.1653 0.0834434 12.6639C-0.617978 19.4513 3.1697 25.5167 8.92135 27.8273C9.3422 27.9717 9.76305 27.6828 9.76305 27.1052V24.7946C9.76305 24.7946 9.20192 24.939 8.5005 24.939C6.53652 24.939 5.69481 23.206 5.55453 22.1952C5.41424 21.6175 5.13368 21.1843 4.71282 20.751C4.29197 20.6066 4.15169 20.6066 4.15169 20.4622C4.15169 20.1734 4.57254 20.1734 4.71282 20.1734C5.55453 20.1734 6.25595 21.1843 6.53652 21.6175C7.23794 22.7728 8.07964 23.0616 8.5005 23.0616C9.06163 23.0616 9.48248 22.9172 9.76305 22.7728C9.90334 21.7619 10.3242 20.751 11.1659 20.1734C7.93936 19.4513 5.55453 17.5739 5.55453 14.3968C5.55453 12.8083 6.25595 11.2198 7.23794 10.0645C7.09765 9.77563 6.95737 9.05356 6.95737 8.04267C6.95737 7.46502 6.95737 6.59854 7.37822 5.73206C7.37822 5.73206 9.3422 5.73207 11.3062 7.60943C12.0076 7.32061 12.9896 7.1762 13.9716 7.1762C14.9536 7.1762 15.9356 7.32061 16.7773 7.60943C18.601 5.73207 20.7052 5.73206 20.7052 5.73206C20.9858 6.59854 20.9858 7.46502 20.9858 8.04267C20.9858 9.19798 20.8455 9.77563 20.7052 10.0645C21.6872 11.2198 22.3886 12.6639 22.3886 14.3968C22.3886 17.5739 20.0038 19.4513 16.7773 20.1734C17.619 20.8954 18.1801 22.1952 18.1801 23.4949V27.2496C18.1801 27.6828 18.601 28.1161 19.1621 27.9717C24.3526 25.8055 28 20.6066 28 14.5413C28 5.87648 20.8455 -0.910935 12.4285 0.0999559Z" fill="#7E7E7E"/>
</g>
</svg>
